<svg width="32" height="32" viewBox="0 0 32 32" fill="none" xmlns="http://www.w3.org/2000/svg">
<rect width="32" height="32" rx="16" fill="#4D526E"/>
<path d="M16 15C17.933 15 19.5 13.433 19.5 11.5C19.5 9.567 17.933 8 16 8C14.067 8 12.5 9.567 12.5 11.5C12.5 13.433 14.067 15 16 15Z" fill="white"/>
<path d="M16 16.5C14.1441 16.5021 12.3649 17.2403 11.0526 18.5526C9.7403 19.8649 9.00212 21.6441 9 23.5C9 23.6326 9.05268 23.7598 9.14645 23.8536C9.24021 23.9473 9.36739 24 9.5 24H22.5C22.6326 24 22.7598 23.9473 22.8536 23.8536C22.9473 23.7598 23 23.6326 23 23.5C22.9979 21.6441 22.2597 19.8649 20.9474 18.5526C19.6351 17.2403 17.8559 16.5021 16 16.5Z" fill="white"/>
</svg>
