<svg width="40" height="40" viewBox="0 0 40 40" fill="none" xmlns="http://www.w3.org/2000/svg">
<circle cx="20" cy="20" r="18.5" stroke="#3B3E52" stroke-width="3"/>
<mask id="path-2-inside-1_12074_14547" fill="white">
<path d="M0 20C-3.45812e-07 23.9556 1.17298 27.8224 3.37061 31.1114C5.56823 34.4004 8.69181 36.9638 12.3463 38.4776C16.0009 39.9913 20.0222 40.3874 23.9018 39.6157C27.7814 38.844 31.3451 36.9392 34.1421 34.1421C36.9392 31.3451 38.844 27.7814 39.6157 23.9018C40.3874 20.0222 39.9913 16.0009 38.4776 12.3463C36.9638 8.69181 34.4004 5.56824 31.1114 3.37061C27.8224 1.17298 23.9556 2.98642e-07 20 0V3.00591C23.3611 3.00591 26.6467 4.0026 29.4414 5.86993C32.2361 7.73727 34.4142 10.3914 35.7005 13.4966C36.9867 16.6019 37.3233 20.0189 36.6676 23.3154C36.0118 26.6119 34.3933 29.64 32.0166 32.0166C29.64 34.3933 26.6119 36.0118 23.3154 36.6676C20.0189 37.3233 16.6019 36.9867 13.4966 35.7005C10.3914 34.4142 7.73726 32.2361 5.86993 29.4414C4.00259 26.6467 3.00591 23.3611 3.00591 20H0Z"/>
</mask>
<path d="M0 20C-3.45812e-07 23.9556 1.17298 27.8224 3.37061 31.1114C5.56823 34.4004 8.69181 36.9638 12.3463 38.4776C16.0009 39.9913 20.0222 40.3874 23.9018 39.6157C27.7814 38.844 31.3451 36.9392 34.1421 34.1421C36.9392 31.3451 38.844 27.7814 39.6157 23.9018C40.3874 20.0222 39.9913 16.0009 38.4776 12.3463C36.9638 8.69181 34.4004 5.56824 31.1114 3.37061C27.8224 1.17298 23.9556 2.98642e-07 20 0V3.00591C23.3611 3.00591 26.6467 4.0026 29.4414 5.86993C32.2361 7.73727 34.4142 10.3914 35.7005 13.4966C36.9867 16.6019 37.3233 20.0189 36.6676 23.3154C36.0118 26.6119 34.3933 29.64 32.0166 32.0166C29.64 34.3933 26.6119 36.0118 23.3154 36.6676C20.0189 37.3233 16.6019 36.9867 13.4966 35.7005C10.3914 34.4142 7.73726 32.2361 5.86993 29.4414C4.00259 26.6467 3.00591 23.3611 3.00591 20H0Z" stroke="#778BD1" stroke-width="6" mask="url(#path-2-inside-1_12074_14547)"/>
</svg>
