<svg width="14" height="14" viewBox="0 0 14 14" fill="none" xmlns="http://www.w3.org/2000/svg">
<path fill-rule="evenodd" clip-rule="evenodd" d="M0.5 7C0.5 3.41 3.41 0.5 7 0.5C10.59 0.5 13.5 3.41 13.5 7C13.5 10.59 10.59 13.5 7 13.5C3.41 13.5 0.5 10.59 0.5 7ZM7 4.5C7.13261 4.5 7.25979 4.55268 7.35355 4.64645C7.44732 4.74022 7.5 4.86739 7.5 5V7.5C7.5 7.63261 7.44732 7.75979 7.35355 7.85355C7.25979 7.94732 7.13261 8 7 8C6.86739 8 6.74022 7.94732 6.64645 7.85355C6.55268 7.75979 6.5 7.63261 6.5 7.5V5C6.5 4.86739 6.55268 4.74022 6.64645 4.64645C6.74022 4.55268 6.86739 4.5 7 4.5ZM7 10C7.13261 10 7.25979 9.94732 7.35355 9.85355C7.44732 9.75979 7.5 9.63261 7.5 9.5C7.5 9.36739 7.44732 9.24022 7.35355 9.14645C7.25979 9.05268 7.13261 9 7 9C6.86739 9 6.74022 9.05268 6.64645 9.14645C6.55268 9.24022 6.5 9.36739 6.5 9.5C6.5 9.63261 6.55268 9.75979 6.64645 9.85355C6.74022 9.94732 6.86739 10 7 10Z" fill="#EF4444"/>
</svg>
